<?xml version="1.0" encoding="us-ascii" standalone="no"?><svg xmlns="http://www.w3.org/2000/svg" xmlns:xlink="http://www.w3.org/1999/xlink" contentStyleType="text/css" height="363px" preserveAspectRatio="none" style="width:734px;height:363px;background:#FFFFFF;" version="1.1" viewBox="0 0 734 363" width="734px" zoomAndPan="magnify"><defs/><g><text fill="#000000" font-family="sans-serif" font-size="14" font-weight="bold" lengthAdjust="spacing" textLength="149" x="294" y="27.7969">UC6: Update Score</text><rect fill="#FFFFFF" height="205.5313" style="stroke:#181818;stroke-width:1.0;" width="10" x="215" y="104.7266"/><rect fill="#FFFFFF" height="28" style="stroke:#181818;stroke-width:1.0;" width="10" x="220" y="254.2578"/><rect fill="#FFFFFF" height="59.1328" style="stroke:#181818;stroke-width:1.0;" width="10" x="439" y="157.9922"/><rect fill="#FFFFFF" height="30" style="stroke:#181818;stroke-width:1.0;" width="10" x="663" y="187.125"/><rect fill="none" height="177.5313" style="stroke:#000000;stroke-width:1.5;" width="572.5" x="155.5" y="119.7266"/><line style="stroke:#181818;stroke-width:0.5;stroke-dasharray:5.0,5.0;" x1="219.5" x2="219.5" y1="73.5938" y2="328.2578"/><line style="stroke:#181818;stroke-width:0.5;stroke-dasharray:5.0,5.0;" x1="444" x2="444" y1="73.5938" y2="328.2578"/><line style="stroke:#181818;stroke-width:0.5;stroke-dasharray:5.0,5.0;" x1="668" x2="668" y1="73.5938" y2="328.2578"/><rect fill="#E2E2F0" height="30.2969" rx="2.5" ry="2.5" style="stroke:#181818;stroke-width:0.5;" width="109" x="165.5" y="42.2969"/><text fill="#000000" font-family="sans-serif" font-size="14" lengthAdjust="spacing" textLength="95" x="172.5" y="62.0938">:ScoreKeeper</text><rect fill="#E2E2F0" height="30.2969" rx="2.5" ry="2.5" style="stroke:#181818;stroke-width:0.5;" width="109" x="165.5" y="327.2578"/><text fill="#000000" font-family="sans-serif" font-size="14" lengthAdjust="spacing" textLength="95" x="172.5" y="347.0547">:ScoreKeeper</text><rect fill="#E2E2F0" height="30.2969" rx="2.5" ry="2.5" style="stroke:#181818;stroke-width:0.5;" width="60" x="414" y="42.2969"/><text fill="#000000" font-family="sans-serif" font-size="14" lengthAdjust="spacing" textLength="46" x="421" y="62.0938">:Board</text><rect fill="#E2E2F0" height="30.2969" rx="2.5" ry="2.5" style="stroke:#181818;stroke-width:0.5;" width="60" x="414" y="327.2578"/><text fill="#000000" font-family="sans-serif" font-size="14" lengthAdjust="spacing" textLength="46" x="421" y="347.0547">:Board</text><rect fill="#E2E2F0" height="30.2969" rx="2.5" ry="2.5" style="stroke:#181818;stroke-width:0.5;" width="100" x="618" y="42.2969"/><text fill="#000000" font-family="sans-serif" font-size="14" lengthAdjust="spacing" textLength="86" x="625" y="62.0938">:Board State</text><rect fill="#E2E2F0" height="30.2969" rx="2.5" ry="2.5" style="stroke:#181818;stroke-width:0.5;" width="100" x="618" y="327.2578"/><text fill="#000000" font-family="sans-serif" font-size="14" lengthAdjust="spacing" textLength="86" x="625" y="347.0547">:Board State</text><rect fill="#FFFFFF" height="205.5313" style="stroke:#181818;stroke-width:1.0;" width="10" x="215" y="104.7266"/><rect fill="#FFFFFF" height="28" style="stroke:#181818;stroke-width:1.0;" width="10" x="220" y="254.2578"/><rect fill="#FFFFFF" height="59.1328" style="stroke:#181818;stroke-width:1.0;" width="10" x="439" y="157.9922"/><rect fill="#FFFFFF" height="30" style="stroke:#181818;stroke-width:1.0;" width="10" x="663" y="187.125"/><ellipse cx="7.5" cy="103.9766" fill="none" rx="4" ry="4" style="stroke:#181818;stroke-width:1.5;"/><polygon fill="#181818" points="203,100.7266,213,104.7266,203,108.7266,207,104.7266" style="stroke:#181818;stroke-width:1.0;"/><line style="stroke:#181818;stroke-width:1.0;" x1="12" x2="209" y1="104.7266" y2="104.7266"/><text fill="#000000" font-family="sans-serif" font-size="13" lengthAdjust="spacing" textLength="188" x="15" y="99.4766">update_score(board, players)</text><path d="M155.5,119.7266 L231.5,119.7266 L231.5,126.8594 L221.5,136.8594 L155.5,136.8594 L155.5,119.7266 " fill="#EEEEEE" style="stroke:#000000;stroke-width:1.5;"/><rect fill="none" height="177.5313" style="stroke:#000000;stroke-width:1.5;" width="572.5" x="155.5" y="119.7266"/><text fill="#000000" font-family="sans-serif" font-size="13" font-weight="bold" lengthAdjust="spacing" textLength="31" x="170.5" y="132.6094">loop</text><text fill="#000000" font-family="sans-serif" font-size="11" font-weight="bold" lengthAdjust="spacing" textLength="87" x="246.5" y="131.7813">[for all players]</text><polygon fill="#181818" points="427,153.9922,437,157.9922,427,161.9922,431,157.9922" style="stroke:#181818;stroke-width:1.0;"/><line style="stroke:#181818;stroke-width:1.0;" x1="225" x2="433" y1="157.9922" y2="157.9922"/><text fill="#000000" font-family="sans-serif" font-size="13" lengthAdjust="spacing" textLength="195" x="232" y="152.7422">get_stacks(owned_by_id_filter)</text><polygon fill="#181818" points="651,183.125,661,187.125,651,191.125,655,187.125" style="stroke:#181818;stroke-width:1.0;"/><line style="stroke:#181818;stroke-width:1.0;" x1="449" x2="657" y1="187.125" y2="187.125"/><text fill="#000000" font-family="sans-serif" font-size="13" lengthAdjust="spacing" textLength="195" x="456" y="181.875">get_stacks(owned_by_id_filter)</text><line style="stroke:#181818;stroke-width:1.0;" x1="230" x2="272" y1="246.2578" y2="246.2578"/><line style="stroke:#181818;stroke-width:1.0;" x1="272" x2="272" y1="246.2578" y2="259.2578"/><line style="stroke:#181818;stroke-width:1.0;" x1="231" x2="272" y1="259.2578" y2="259.2578"/><polygon fill="#181818" points="241,255.2578,231,259.2578,241,263.2578,237,259.2578" style="stroke:#181818;stroke-width:1.0;"/><text fill="#000000" font-family="sans-serif" font-size="13" lengthAdjust="spacing" textLength="171" x="237" y="241.0078">sum_player_points(stacks)</text><ellipse cx="7.5" cy="309.5078" fill="none" rx="4" ry="4" style="stroke:#181818;stroke-width:1.5;"/><polygon fill="#181818" points="24.5,306.2578,14.5,310.2578,24.5,314.2578,20.5,310.2578" style="stroke:#181818;stroke-width:1.0;"/><line style="stroke:#181818;stroke-width:1.0;stroke-dasharray:2.0,2.0;" x1="22.5" x2="219" y1="310.2578" y2="310.2578"/></g></svg>