<?xml version="1.0" encoding="us-ascii" standalone="no"?><svg xmlns="http://www.w3.org/2000/svg" xmlns:xlink="http://www.w3.org/1999/xlink" contentStyleType="text/css" height="290px" preserveAspectRatio="none" style="width:499px;height:290px;background:#FFFFFF;" version="1.1" viewBox="0 0 499 290" width="499px" zoomAndPan="magnify"><defs/><g><text fill="#000000" font-family="sans-serif" font-size="14" font-weight="bold" lengthAdjust="spacing" textLength="163" x="169.75" y="27.7969">UC5: Increment Turn</text><rect fill="#FFFFFF" height="132.5313" style="stroke:#181818;stroke-width:1.0;" width="10" x="159" y="104.7266"/><rect fill="#FFFFFF" height="89.3984" style="stroke:#181818;stroke-width:1.0;" width="10" x="428" y="133.8594"/><rect fill="none" height="46.2656" style="stroke:#000000;stroke-width:1.5;" width="482.5" x="11" y="148.8594"/><line style="stroke:#181818;stroke-width:0.5;stroke-dasharray:5.0,5.0;" x1="164" x2="164" y1="73.5938" y2="255.2578"/><line style="stroke:#181818;stroke-width:0.5;stroke-dasharray:5.0,5.0;" x1="432.5" x2="432.5" y1="73.5938" y2="255.2578"/><rect fill="#E2E2F0" height="30.2969" rx="2.5" ry="2.5" style="stroke:#181818;stroke-width:0.5;" width="78" x="125" y="42.2969"/><text fill="#000000" font-family="sans-serif" font-size="14" lengthAdjust="spacing" textLength="64" x="132" y="62.0938">:Validator</text><rect fill="#E2E2F0" height="30.2969" rx="2.5" ry="2.5" style="stroke:#181818;stroke-width:0.5;" width="78" x="125" y="254.2578"/><text fill="#000000" font-family="sans-serif" font-size="14" lengthAdjust="spacing" textLength="64" x="132" y="274.0547">:Validator</text><rect fill="#E2E2F0" height="30.2969" rx="2.5" ry="2.5" style="stroke:#181818;stroke-width:0.5;" width="101" x="382.5" y="42.2969"/><text fill="#000000" font-family="sans-serif" font-size="14" lengthAdjust="spacing" textLength="87" x="389.5" y="62.0938">:TurnService</text><rect fill="#E2E2F0" height="30.2969" rx="2.5" ry="2.5" style="stroke:#181818;stroke-width:0.5;" width="101" x="382.5" y="254.2578"/><text fill="#000000" font-family="sans-serif" font-size="14" lengthAdjust="spacing" textLength="87" x="389.5" y="274.0547">:TurnService</text><rect fill="#FFFFFF" height="132.5313" style="stroke:#181818;stroke-width:1.0;" width="10" x="159" y="104.7266"/><rect fill="#FFFFFF" height="89.3984" style="stroke:#181818;stroke-width:1.0;" width="10" x="428" y="133.8594"/><ellipse cx="7.5" cy="103.9766" fill="none" rx="4" ry="4" style="stroke:#181818;stroke-width:1.5;"/><polygon fill="#181818" points="147,100.7266,157,104.7266,147,108.7266,151,104.7266" style="stroke:#181818;stroke-width:1.0;"/><line style="stroke:#181818;stroke-width:1.0;" x1="12" x2="153" y1="104.7266" y2="104.7266"/><text fill="#000000" font-family="sans-serif" font-size="13" lengthAdjust="spacing" textLength="132" x="15" y="99.4766">post_validate(board)</text><polygon fill="#181818" points="416,129.8594,426,133.8594,416,137.8594,420,133.8594" style="stroke:#181818;stroke-width:1.0;"/><line style="stroke:#181818;stroke-width:1.0;" x1="169" x2="422" y1="133.8594" y2="133.8594"/><text fill="#000000" font-family="sans-serif" font-size="13" lengthAdjust="spacing" textLength="240" x="176" y="128.6094">increment_turn(has_legal_moves_cb)</text><path d="M11,148.8594 L75,148.8594 L75,155.9922 L65,165.9922 L11,165.9922 L11,148.8594 " fill="#EEEEEE" style="stroke:#000000;stroke-width:1.5;"/><rect fill="none" height="46.2656" style="stroke:#000000;stroke-width:1.5;" width="482.5" x="11" y="148.8594"/><text fill="#000000" font-family="sans-serif" font-size="13" font-weight="bold" lengthAdjust="spacing" textLength="19" x="26" y="161.7422">alt</text><text fill="#000000" font-family="sans-serif" font-size="11" font-weight="bold" lengthAdjust="spacing" textLength="234" x="90" y="160.9141">["No More Legal Moves for both players"]</text><ellipse cx="7.5" cy="186.375" fill="none" rx="4" ry="4" style="stroke:#181818;stroke-width:1.5;"/><polygon fill="#181818" points="24.5,183.125,14.5,187.125,24.5,191.125,20.5,187.125" style="stroke:#181818;stroke-width:1.0;"/><line style="stroke:#181818;stroke-width:1.0;stroke-dasharray:2.0,2.0;" x1="22.5" x2="427" y1="187.125" y2="187.125"/><text fill="#000000" font-family="sans-serif" font-size="13" lengthAdjust="spacing" textLength="125" x="25" y="181.875">GameEndException</text><polygon fill="#181818" points="180,219.2578,170,223.2578,180,227.2578,176,223.2578" style="stroke:#181818;stroke-width:1.0;"/><line style="stroke:#181818;stroke-width:1.0;stroke-dasharray:2.0,2.0;" x1="174" x2="432" y1="223.2578" y2="223.2578"/><text fill="#000000" font-family="sans-serif" font-size="13" lengthAdjust="spacing" textLength="108" x="186" y="218.0078">Current Player ID</text><ellipse cx="7.5" cy="236.5078" fill="none" rx="4" ry="4" style="stroke:#181818;stroke-width:1.5;"/><polygon fill="#181818" points="24.5,233.2578,14.5,237.2578,24.5,241.2578,20.5,237.2578" style="stroke:#181818;stroke-width:1.0;"/><line style="stroke:#181818;stroke-width:1.0;stroke-dasharray:2.0,2.0;" x1="22.5" x2="163" y1="237.2578" y2="237.2578"/></g></svg>