<?xml version="1.0" encoding="us-ascii" standalone="no"?><svg xmlns="http://www.w3.org/2000/svg" xmlns:xlink="http://www.w3.org/1999/xlink" contentStyleType="text/css" height="497px" preserveAspectRatio="none" style="width:1236px;height:497px;background:#FFFFFF;" version="1.1" viewBox="0 0 1236 497" width="1236px" zoomAndPan="magnify"><defs/><g><text fill="#000000" font-family="sans-serif" font-size="14" font-weight="bold" lengthAdjust="spacing" textLength="130" x="554.5" y="27.7969">UC9: Start Game</text><rect fill="#FFFFFF" height="339.8828" style="stroke:#181818;stroke-width:1.0;" width="10" x="204" y="104.7266"/><rect fill="#FFFFFF" height="214.1563" style="stroke:#181818;stroke-width:1.0;" width="10" x="628" y="216.4531"/><rect fill="#FFFFFF" height="82.5938" style="stroke:#181818;stroke-width:1.0;" width="10" x="813" y="255.5859"/><rect fill="#FFFFFF" height="30" style="stroke:#181818;stroke-width:1.0;" width="10" x="1030" y="400.6094"/><rect fill="none" height="58.4297" style="stroke:#000000;stroke-width:1.5;" width="511" x="719" y="272.75"/><line style="stroke:#181818;stroke-width:0.5;stroke-dasharray:5.0,5.0;" x1="209" x2="209" y1="73.5938" y2="462.6094"/><line style="stroke:#181818;stroke-width:0.5;stroke-dasharray:5.0,5.0;" x1="407" x2="407" y1="143.375" y2="462.6094"/><line style="stroke:#181818;stroke-width:0.5;stroke-dasharray:5.0,5.0;" x1="534" x2="534" y1="184.6719" y2="462.6094"/><line style="stroke:#181818;stroke-width:0.5;stroke-dasharray:5.0,5.0;" x1="633" x2="633" y1="73.5938" y2="462.6094"/><line style="stroke:#181818;stroke-width:0.5;stroke-dasharray:5.0,5.0;" x1="818" x2="818" y1="255.1016" y2="462.6094"/><line style="stroke:#181818;stroke-width:0.5;stroke-dasharray:5.0,5.0;" x1="1035" x2="1035" y1="368.8281" y2="462.6094"/><line style="stroke:#181818;stroke-width:0.5;stroke-dasharray:5.0,5.0;" x1="1191" x2="1191" y1="320.5313" y2="462.6094"/><rect fill="#E2E2F0" height="30.2969" rx="2.5" ry="2.5" style="stroke:#181818;stroke-width:0.5;" width="106" x="156" y="42.2969"/><text fill="#000000" font-family="sans-serif" font-size="14" lengthAdjust="spacing" textLength="92" x="163" y="62.0938">:Orchestrator</text><rect fill="#E2E2F0" height="30.2969" rx="2.5" ry="2.5" style="stroke:#181818;stroke-width:0.5;" width="106" x="156" y="461.6094"/><text fill="#000000" font-family="sans-serif" font-size="14" lengthAdjust="spacing" textLength="92" x="163" y="481.4063">:Orchestrator</text><rect fill="#E2E2F0" height="30.2969" rx="2.5" ry="2.5" style="stroke:#181818;stroke-width:0.5;" width="117" x="349" y="461.6094"/><text fill="#000000" font-family="sans-serif" font-size="14" lengthAdjust="spacing" textLength="103" x="356" y="481.4063">player_1:Player</text><rect fill="#E2E2F0" height="30.2969" rx="2.5" ry="2.5" style="stroke:#181818;stroke-width:0.5;" width="117" x="476" y="461.6094"/><text fill="#000000" font-family="sans-serif" font-size="14" lengthAdjust="spacing" textLength="103" x="483" y="481.4063">player_2:Player</text><rect fill="#E2E2F0" height="30.2969" rx="2.5" ry="2.5" style="stroke:#181818;stroke-width:0.5;" width="60" x="603" y="42.2969"/><text fill="#000000" font-family="sans-serif" font-size="14" lengthAdjust="spacing" textLength="46" x="610" y="62.0938">:Board</text><rect fill="#E2E2F0" height="30.2969" rx="2.5" ry="2.5" style="stroke:#181818;stroke-width:0.5;" width="60" x="603" y="461.6094"/><text fill="#000000" font-family="sans-serif" font-size="14" lengthAdjust="spacing" textLength="46" x="610" y="481.4063">:Board</text><rect fill="#E2E2F0" height="30.2969" rx="2.5" ry="2.5" style="stroke:#181818;stroke-width:0.5;" width="178" x="729" y="461.6094"/><text fill="#000000" font-family="sans-serif" font-size="14" lengthAdjust="spacing" textLength="164" x="736" y="481.4063">board_state:BoardState</text><rect fill="#E2E2F0" height="30.2969" rx="2.5" ry="2.5" style="stroke:#181818;stroke-width:0.5;" width="236" x="917" y="461.6094"/><text fill="#000000" font-family="sans-serif" font-size="14" lengthAdjust="spacing" textLength="222" x="924" y="481.4063">backup_board_state:BoardState</text><rect fill="#E2E2F0" height="30.2969" rx="2.5" ry="2.5" style="stroke:#181818;stroke-width:0.5;" width="57" x="1163" y="461.6094"/><text fill="#000000" font-family="sans-serif" font-size="14" lengthAdjust="spacing" textLength="43" x="1170" y="481.4063">:Stack</text><rect fill="#FFFFFF" height="339.8828" style="stroke:#181818;stroke-width:1.0;" width="10" x="204" y="104.7266"/><rect fill="#FFFFFF" height="214.1563" style="stroke:#181818;stroke-width:1.0;" width="10" x="628" y="216.4531"/><rect fill="#FFFFFF" height="82.5938" style="stroke:#181818;stroke-width:1.0;" width="10" x="813" y="255.5859"/><rect fill="#FFFFFF" height="30" style="stroke:#181818;stroke-width:1.0;" width="10" x="1030" y="400.6094"/><ellipse cx="7.5" cy="103.9766" fill="none" rx="4" ry="4" style="stroke:#181818;stroke-width:1.5;"/><polygon fill="#181818" points="192,100.7266,202,104.7266,192,108.7266,196,104.7266" style="stroke:#181818;stroke-width:1.0;"/><line style="stroke:#181818;stroke-width:1.0;" x1="12" x2="198" y1="104.7266" y2="104.7266"/><text fill="#000000" font-family="sans-serif" font-size="13" lengthAdjust="spacing" textLength="177" x="15" y="99.4766">start_game(player_name[])</text><polygon fill="#181818" points="337,129.8594,347,133.8594,337,137.8594,341,133.8594" style="stroke:#181818;stroke-width:1.0;"/><line style="stroke:#181818;stroke-width:1.0;" x1="214" x2="343" y1="133.8594" y2="133.8594"/><text fill="#000000" font-family="sans-serif" font-size="13" lengthAdjust="spacing" textLength="111" x="221" y="128.6094">(player_name[0])</text><rect fill="#E2E2F0" height="30.2969" rx="2.5" ry="2.5" style="stroke:#181818;stroke-width:0.5;" width="117" x="349" y="112.7266"/><text fill="#000000" font-family="sans-serif" font-size="14" lengthAdjust="spacing" textLength="103" x="356" y="132.5234">player_1:Player</text><polygon fill="#181818" points="464,171.1563,474,175.1563,464,179.1563,468,175.1563" style="stroke:#181818;stroke-width:1.0;"/><line style="stroke:#181818;stroke-width:1.0;" x1="214" x2="470" y1="175.1563" y2="175.1563"/><text fill="#000000" font-family="sans-serif" font-size="13" lengthAdjust="spacing" textLength="111" x="221" y="169.9063">(player_name[1])</text><rect fill="#E2E2F0" height="30.2969" rx="2.5" ry="2.5" style="stroke:#181818;stroke-width:0.5;" width="117" x="476" y="154.0234"/><text fill="#000000" font-family="sans-serif" font-size="14" lengthAdjust="spacing" textLength="103" x="483" y="173.8203">player_2:Player</text><polygon fill="#181818" points="616,212.4531,626,216.4531,616,220.4531,620,216.4531" style="stroke:#181818;stroke-width:1.0;"/><line style="stroke:#181818;stroke-width:1.0;" x1="214" x2="622" y1="216.4531" y2="216.4531"/><text fill="#000000" font-family="sans-serif" font-size="13" lengthAdjust="spacing" textLength="118" x="221" y="211.2031">create(playerids[])</text><polygon fill="#181818" points="717,241.5859,727,245.5859,717,249.5859,721,245.5859" style="stroke:#181818;stroke-width:1.0;"/><line style="stroke:#181818;stroke-width:1.0;" x1="638" x2="723" y1="245.5859" y2="245.5859"/><text fill="#000000" font-family="sans-serif" font-size="13" lengthAdjust="spacing" textLength="67" x="645" y="240.3359">playerids[]</text><rect fill="#E2E2F0" height="30.2969" rx="2.5" ry="2.5" style="stroke:#181818;stroke-width:0.5;" width="178" x="729" y="224.4531"/><text fill="#000000" font-family="sans-serif" font-size="14" lengthAdjust="spacing" textLength="164" x="736" y="244.25">board_state:BoardState</text><path d="M719,272.75 L795,272.75 L795,279.8828 L785,289.8828 L719,289.8828 L719,272.75 " fill="#EEEEEE" style="stroke:#000000;stroke-width:1.5;"/><rect fill="none" height="58.4297" style="stroke:#000000;stroke-width:1.5;" width="511" x="719" y="272.75"/><text fill="#000000" font-family="sans-serif" font-size="13" font-weight="bold" lengthAdjust="spacing" textLength="31" x="734" y="285.6328">loop</text><text fill="#000000" font-family="sans-serif" font-size="11" font-weight="bold" lengthAdjust="spacing" textLength="154" x="810" y="284.8047">[until all pieces are placed]</text><polygon fill="#181818" points="1151,307.0156,1161,311.0156,1151,315.0156,1155,311.0156" style="stroke:#181818;stroke-width:1.0;"/><line style="stroke:#181818;stroke-width:1.0;" x1="823" x2="1157" y1="311.0156" y2="311.0156"/><text fill="#000000" font-family="sans-serif" font-size="13" lengthAdjust="spacing" textLength="114" x="830" y="305.7656">random_player_id</text><rect fill="#E2E2F0" height="30.2969" rx="2.5" ry="2.5" style="stroke:#181818;stroke-width:0.5;" width="57" x="1163" y="289.8828"/><text fill="#000000" font-family="sans-serif" font-size="14" lengthAdjust="spacing" textLength="43" x="1170" y="309.6797">:Stack</text><polygon fill="#181818" points="905,340.1797,915,344.1797,905,348.1797,909,344.1797" style="stroke:#181818;stroke-width:1.0;"/><line style="stroke:#181818;stroke-width:1.0;" x1="638" x2="911" y1="344.1797" y2="344.1797"/><rect fill="#E2E2F0" height="30.2969" rx="2.5" ry="2.5" style="stroke:#181818;stroke-width:0.5;" width="236" x="917" y="338.1797"/><text fill="#000000" font-family="sans-serif" font-size="14" lengthAdjust="spacing" textLength="222" x="924" y="357.9766">backup_board_state:BoardState</text><polygon fill="#181818" points="1018,396.6094,1028,400.6094,1018,404.6094,1022,400.6094" style="stroke:#181818;stroke-width:1.0;"/><line style="stroke:#181818;stroke-width:1.0;" x1="638" x2="1024" y1="400.6094" y2="400.6094"/><text fill="#000000" font-family="sans-serif" font-size="13" lengthAdjust="spacing" textLength="176" x="645" y="395.3594">paste(backup_board_state)</text><ellipse cx="7.5" cy="443.8594" fill="none" rx="4" ry="4" style="stroke:#181818;stroke-width:1.5;"/><polygon fill="#181818" points="24.5,440.6094,14.5,444.6094,24.5,448.6094,20.5,444.6094" style="stroke:#181818;stroke-width:1.0;"/><line style="stroke:#181818;stroke-width:1.0;stroke-dasharray:2.0,2.0;" x1="22.5" x2="208" y1="444.6094" y2="444.6094"/></g></svg>