<?xml version="1.0" encoding="us-ascii" standalone="no"?><svg xmlns="http://www.w3.org/2000/svg" xmlns:xlink="http://www.w3.org/1999/xlink" contentStyleType="text/css" height="504px" preserveAspectRatio="none" style="width:1039px;height:504px;background:#FFFFFF;" version="1.1" viewBox="0 0 1039 504" width="1039px" zoomAndPan="magnify"><defs/><g><text fill="#000000" font-family="sans-serif" font-size="14" font-weight="bold" lengthAdjust="spacing" textLength="139" x="449.25" y="27.7969">UC 10: Play Game</text><rect fill="#FFFFFF" height="256.2578" style="stroke:#181818;stroke-width:1.0;" width="10" x="192.5" y="149.7266"/><rect fill="#FFFFFF" height="154.8594" style="stroke:#181818;stroke-width:1.0;" width="10" x="505.5" y="237.125"/><rect fill="#FFFFFF" height="29.1328" style="stroke:#181818;stroke-width:1.0;" width="10" x="980.5" y="348.8516"/><line style="stroke:#181818;stroke-width:0.5;stroke-dasharray:5.0,5.0;" x1="28" x2="28" y1="118.5938" y2="423.9844"/><line style="stroke:#181818;stroke-width:0.5;stroke-dasharray:5.0,5.0;" x1="197.5" x2="197.5" y1="118.5938" y2="423.9844"/><line style="stroke:#181818;stroke-width:0.5;stroke-dasharray:5.0,5.0;" x1="510" x2="510" y1="118.5938" y2="423.9844"/><line style="stroke:#181818;stroke-width:0.5;stroke-dasharray:5.0,5.0;" x1="752.5" x2="752.5" y1="275.7734" y2="423.9844"/><line style="stroke:#181818;stroke-width:0.5;stroke-dasharray:5.0,5.0;" x1="872.5" x2="872.5" y1="317.0703" y2="423.9844"/><line style="stroke:#181818;stroke-width:0.5;stroke-dasharray:5.0,5.0;" x1="985.5" x2="985.5" y1="118.5938" y2="423.9844"/><text fill="#000000" font-family="sans-serif" font-size="14" lengthAdjust="spacing" textLength="41" x="5" y="115.0938">Player</text><ellipse cx="28.5" cy="50.7969" fill="#E2E2F0" rx="8" ry="8" style="stroke:#181818;stroke-width:0.5;"/><path d="M28.5,58.7969 L28.5,85.7969 M15.5,66.7969 L41.5,66.7969 M28.5,85.7969 L15.5,100.7969 M28.5,85.7969 L41.5,100.7969 " fill="none" style="stroke:#181818;stroke-width:0.5;"/><text fill="#000000" font-family="sans-serif" font-size="14" lengthAdjust="spacing" textLength="41" x="5" y="435.7813">Player</text><ellipse cx="28.5" cy="447.7813" fill="#E2E2F0" rx="8" ry="8" style="stroke:#181818;stroke-width:0.5;"/><path d="M28.5,455.7813 L28.5,482.7813 M15.5,463.7813 L41.5,463.7813 M28.5,482.7813 L15.5,497.7813 M28.5,482.7813 L41.5,497.7813 " fill="none" style="stroke:#181818;stroke-width:0.5;"/><rect fill="#E2E2F0" height="30.2969" rx="2.5" ry="2.5" style="stroke:#181818;stroke-width:0.5;" width="62" x="166.5" y="87.2969"/><text fill="#000000" font-family="sans-serif" font-size="14" lengthAdjust="spacing" textLength="48" x="173.5" y="107.0938">:TextUI</text><rect fill="#E2E2F0" height="30.2969" rx="2.5" ry="2.5" style="stroke:#181818;stroke-width:0.5;" width="62" x="166.5" y="422.9844"/><text fill="#000000" font-family="sans-serif" font-size="14" lengthAdjust="spacing" textLength="48" x="173.5" y="442.7813">:TextUI</text><rect fill="#E2E2F0" height="30.2969" rx="2.5" ry="2.5" style="stroke:#181818;stroke-width:0.5;" width="211" x="405" y="87.2969"/><text fill="#000000" font-family="sans-serif" font-size="14" lengthAdjust="spacing" textLength="197" x="412" y="107.0938">:UserInteractionOrchestrator</text><rect fill="#E2E2F0" height="30.2969" rx="2.5" ry="2.5" style="stroke:#181818;stroke-width:0.5;" width="211" x="405" y="422.9844"/><text fill="#000000" font-family="sans-serif" font-size="14" lengthAdjust="spacing" textLength="197" x="412" y="442.7813">:UserInteractionOrchestrator</text><rect fill="#E2E2F0" height="30.2969" rx="2.5" ry="2.5" style="stroke:#181818;stroke-width:0.5;" width="110" x="697.5" y="422.9844"/><text fill="#000000" font-family="sans-serif" font-size="14" lengthAdjust="spacing" textLength="96" x="704.5" y="442.7813">player1:Player</text><rect fill="#E2E2F0" height="30.2969" rx="2.5" ry="2.5" style="stroke:#181818;stroke-width:0.5;" width="110" x="817.5" y="422.9844"/><text fill="#000000" font-family="sans-serif" font-size="14" lengthAdjust="spacing" textLength="96" x="824.5" y="442.7813">player2:Player</text><rect fill="#E2E2F0" height="30.2969" rx="2.5" ry="2.5" style="stroke:#181818;stroke-width:0.5;" width="96" x="937.5" y="87.2969"/><text fill="#000000" font-family="sans-serif" font-size="14" lengthAdjust="spacing" textLength="82" x="944.5" y="107.0938">:GameLogic</text><rect fill="#E2E2F0" height="30.2969" rx="2.5" ry="2.5" style="stroke:#181818;stroke-width:0.5;" width="96" x="937.5" y="422.9844"/><text fill="#000000" font-family="sans-serif" font-size="14" lengthAdjust="spacing" textLength="82" x="944.5" y="442.7813">:GameLogic</text><rect fill="#FFFFFF" height="256.2578" style="stroke:#181818;stroke-width:1.0;" width="10" x="192.5" y="149.7266"/><rect fill="#FFFFFF" height="154.8594" style="stroke:#181818;stroke-width:1.0;" width="10" x="505.5" y="237.125"/><rect fill="#FFFFFF" height="29.1328" style="stroke:#181818;stroke-width:1.0;" width="10" x="980.5" y="348.8516"/><polygon fill="#181818" points="180.5,145.7266,190.5,149.7266,180.5,153.7266,184.5,149.7266" style="stroke:#181818;stroke-width:1.0;"/><line style="stroke:#181818;stroke-width:1.0;" x1="28.5" x2="186.5" y1="149.7266" y2="149.7266"/><text fill="#000000" font-family="sans-serif" font-size="13" lengthAdjust="spacing" textLength="80" x="35.5" y="144.4766">play_game()</text><polygon fill="#181818" points="39.5,174.8594,29.5,178.8594,39.5,182.8594,35.5,178.8594" style="stroke:#181818;stroke-width:1.0;"/><line style="stroke:#181818;stroke-width:1.0;" x1="33.5" x2="191.5" y1="178.8594" y2="178.8594"/><text fill="#000000" font-family="sans-serif" font-size="13" lengthAdjust="spacing" textLength="140" x="45.5" y="173.6094">"Enter player 1 name"</text><polygon fill="#181818" points="39.5,203.9922,29.5,207.9922,39.5,211.9922,35.5,207.9922" style="stroke:#181818;stroke-width:1.0;"/><line style="stroke:#181818;stroke-width:1.0;" x1="33.5" x2="191.5" y1="207.9922" y2="207.9922"/><text fill="#000000" font-family="sans-serif" font-size="13" lengthAdjust="spacing" textLength="140" x="45.5" y="202.7422">"Enter player 2 name"</text><polygon fill="#181818" points="493.5,233.125,503.5,237.125,493.5,241.125,497.5,237.125" style="stroke:#181818;stroke-width:1.0;"/><line style="stroke:#181818;stroke-width:1.0;" x1="202.5" x2="499.5" y1="237.125" y2="237.125"/><text fill="#000000" font-family="sans-serif" font-size="13" lengthAdjust="spacing" textLength="284" x="209.5" y="231.875">start_game([player1_name, player2_name])</text><polygon fill="#181818" points="685.5,262.2578,695.5,266.2578,685.5,270.2578,689.5,266.2578" style="stroke:#181818;stroke-width:1.0;"/><line style="stroke:#181818;stroke-width:1.0;" x1="515.5" x2="691.5" y1="266.2578" y2="266.2578"/><text fill="#000000" font-family="sans-serif" font-size="13" lengthAdjust="spacing" textLength="158" x="522.5" y="261.0078">(player_name, player_id)</text><rect fill="#E2E2F0" height="30.2969" rx="2.5" ry="2.5" style="stroke:#181818;stroke-width:0.5;" width="110" x="697.5" y="245.125"/><text fill="#000000" font-family="sans-serif" font-size="14" lengthAdjust="spacing" textLength="96" x="704.5" y="264.9219">player1:Player</text><polygon fill="#181818" points="805.5,303.5547,815.5,307.5547,805.5,311.5547,809.5,307.5547" style="stroke:#181818;stroke-width:1.0;"/><line style="stroke:#181818;stroke-width:1.0;" x1="515.5" x2="811.5" y1="307.5547" y2="307.5547"/><text fill="#000000" font-family="sans-serif" font-size="13" lengthAdjust="spacing" textLength="158" x="522.5" y="302.3047">(player_name, player_id)</text><rect fill="#E2E2F0" height="30.2969" rx="2.5" ry="2.5" style="stroke:#181818;stroke-width:0.5;" width="110" x="817.5" y="286.4219"/><text fill="#000000" font-family="sans-serif" font-size="14" lengthAdjust="spacing" textLength="96" x="824.5" y="306.2188">player2:Player</text><polygon fill="#181818" points="968.5,344.8516,978.5,348.8516,968.5,352.8516,972.5,348.8516" style="stroke:#181818;stroke-width:1.0;"/><line style="stroke:#181818;stroke-width:1.0;" x1="515.5" x2="974.5" y1="348.8516" y2="348.8516"/><text fill="#000000" font-family="sans-serif" font-size="13" lengthAdjust="spacing" textLength="278" x="522.5" y="343.6016">start_game([player1.name, player2.name])</text><polygon fill="#181818" points="526.5,373.9844,516.5,377.9844,526.5,381.9844,522.5,377.9844" style="stroke:#181818;stroke-width:1.0;"/><line style="stroke:#181818;stroke-width:1.0;stroke-dasharray:2.0,2.0;" x1="520.5" x2="984.5" y1="377.9844" y2="377.9844"/><text fill="#000000" font-family="sans-serif" font-size="13" lengthAdjust="spacing" textLength="194" x="532.5" y="372.7344">(player_1_uuid, player_2_uuid)</text><polygon fill="#181818" points="213.5,387.9844,203.5,391.9844,213.5,395.9844,209.5,391.9844" style="stroke:#181818;stroke-width:1.0;"/><line style="stroke:#181818;stroke-width:1.0;stroke-dasharray:2.0,2.0;" x1="207.5" x2="509.5" y1="391.9844" y2="391.9844"/><polygon fill="#181818" points="39.5,401.9844,29.5,405.9844,39.5,409.9844,35.5,405.9844" style="stroke:#181818;stroke-width:1.0;"/><line style="stroke:#181818;stroke-width:1.0;stroke-dasharray:2.0,2.0;" x1="33.5" x2="196.5" y1="405.9844" y2="405.9844"/></g></svg>