<?xml version="1.0" encoding="us-ascii" standalone="no"?><svg xmlns="http://www.w3.org/2000/svg" xmlns:xlink="http://www.w3.org/1999/xlink" contentStyleType="text/css" height="320px" preserveAspectRatio="none" style="width:662px;height:320px;background:#FFFFFF;" version="1.1" viewBox="0 0 662 320" width="662px" zoomAndPan="magnify"><defs/><g><text fill="#000000" font-family="sans-serif" font-size="14" font-weight="bold" lengthAdjust="spacing" textLength="149" x="255.5" y="27.7969">UC4: Is Player Turn</text><rect fill="#FFFFFF" height="171.5313" style="stroke:#181818;stroke-width:1.0;" width="10" x="159" y="104.7266"/><rect fill="#FFFFFF" height="59.1328" style="stroke:#181818;stroke-width:1.0;" width="10" x="381" y="133.8594"/><rect fill="#FFFFFF" height="30" style="stroke:#181818;stroke-width:1.0;" width="10" x="603" y="162.9922"/><rect fill="none" height="46.2656" style="stroke:#000000;stroke-width:1.5;" width="297" x="11" y="207.9922"/><line style="stroke:#181818;stroke-width:0.5;stroke-dasharray:5.0,5.0;" x1="163.5" x2="163.5" y1="73.5938" y2="285.2578"/><line style="stroke:#181818;stroke-width:0.5;stroke-dasharray:5.0,5.0;" x1="386" x2="386" y1="73.5938" y2="285.2578"/><line style="stroke:#181818;stroke-width:0.5;stroke-dasharray:5.0,5.0;" x1="608" x2="608" y1="73.5938" y2="285.2578"/><rect fill="#E2E2F0" height="30.2969" rx="2.5" ry="2.5" style="stroke:#181818;stroke-width:0.5;" width="101" x="113.5" y="42.2969"/><text fill="#000000" font-family="sans-serif" font-size="14" lengthAdjust="spacing" textLength="87" x="120.5" y="62.0938">:TurnService</text><rect fill="#E2E2F0" height="30.2969" rx="2.5" ry="2.5" style="stroke:#181818;stroke-width:0.5;" width="101" x="113.5" y="284.2578"/><text fill="#000000" font-family="sans-serif" font-size="14" lengthAdjust="spacing" textLength="87" x="120.5" y="304.0547">:TurnService</text><rect fill="#E2E2F0" height="30.2969" rx="2.5" ry="2.5" style="stroke:#181818;stroke-width:0.5;" width="60" x="356" y="42.2969"/><text fill="#000000" font-family="sans-serif" font-size="14" lengthAdjust="spacing" textLength="46" x="363" y="62.0938">:Board</text><rect fill="#E2E2F0" height="30.2969" rx="2.5" ry="2.5" style="stroke:#181818;stroke-width:0.5;" width="60" x="356" y="284.2578"/><text fill="#000000" font-family="sans-serif" font-size="14" lengthAdjust="spacing" textLength="46" x="363" y="304.0547">:Board</text><rect fill="#E2E2F0" height="30.2969" rx="2.5" ry="2.5" style="stroke:#181818;stroke-width:0.5;" width="96" x="560" y="42.2969"/><text fill="#000000" font-family="sans-serif" font-size="14" lengthAdjust="spacing" textLength="82" x="567" y="62.0938">:BoardState</text><rect fill="#E2E2F0" height="30.2969" rx="2.5" ry="2.5" style="stroke:#181818;stroke-width:0.5;" width="96" x="560" y="284.2578"/><text fill="#000000" font-family="sans-serif" font-size="14" lengthAdjust="spacing" textLength="82" x="567" y="304.0547">:BoardState</text><rect fill="#FFFFFF" height="171.5313" style="stroke:#181818;stroke-width:1.0;" width="10" x="159" y="104.7266"/><rect fill="#FFFFFF" height="59.1328" style="stroke:#181818;stroke-width:1.0;" width="10" x="381" y="133.8594"/><rect fill="#FFFFFF" height="30" style="stroke:#181818;stroke-width:1.0;" width="10" x="603" y="162.9922"/><ellipse cx="7.5" cy="103.9766" fill="none" rx="4" ry="4" style="stroke:#181818;stroke-width:1.5;"/><polygon fill="#181818" points="147,100.7266,157,104.7266,147,108.7266,151,104.7266" style="stroke:#181818;stroke-width:1.0;"/><line style="stroke:#181818;stroke-width:1.0;" x1="12" x2="153" y1="104.7266" y2="104.7266"/><text fill="#000000" font-family="sans-serif" font-size="13" lengthAdjust="spacing" textLength="132" x="15" y="99.4766">is_turn(board, {x,y})</text><polygon fill="#181818" points="369,129.8594,379,133.8594,369,137.8594,373,133.8594" style="stroke:#181818;stroke-width:1.0;"/><line style="stroke:#181818;stroke-width:1.0;" x1="169" x2="375" y1="133.8594" y2="133.8594"/><text fill="#000000" font-family="sans-serif" font-size="13" lengthAdjust="spacing" textLength="193" x="176" y="128.6094">get_stacks(current_turn_filter)</text><polygon fill="#181818" points="591,158.9922,601,162.9922,591,166.9922,595,162.9922" style="stroke:#181818;stroke-width:1.0;"/><line style="stroke:#181818;stroke-width:1.0;" x1="391" x2="597" y1="162.9922" y2="162.9922"/><text fill="#000000" font-family="sans-serif" font-size="13" lengthAdjust="spacing" textLength="193" x="398" y="157.7422">get_stacks(current_turn_filter)</text><path d="M11,207.9922 L75,207.9922 L75,215.125 L65,225.125 L11,225.125 L11,207.9922 " fill="#EEEEEE" style="stroke:#000000;stroke-width:1.5;"/><rect fill="none" height="46.2656" style="stroke:#000000;stroke-width:1.5;" width="297" x="11" y="207.9922"/><text fill="#000000" font-family="sans-serif" font-size="13" font-weight="bold" lengthAdjust="spacing" textLength="19" x="26" y="220.875">alt</text><text fill="#000000" font-family="sans-serif" font-size="11" font-weight="bold" lengthAdjust="spacing" textLength="213" x="90" y="220.0469">[Stack is not the current turn's stack]</text><ellipse cx="7.5" cy="245.5078" fill="none" rx="4" ry="4" style="stroke:#181818;stroke-width:1.5;"/><polygon fill="#181818" points="24.5,242.2578,14.5,246.2578,24.5,250.2578,20.5,246.2578" style="stroke:#181818;stroke-width:1.0;"/><line style="stroke:#181818;stroke-width:1.0;stroke-dasharray:2.0,2.0;" x1="22.5" x2="158" y1="246.2578" y2="246.2578"/><text fill="#000000" font-family="sans-serif" font-size="13" lengthAdjust="spacing" textLength="126" x="25" y="241.0078">IllegalTurnException</text><ellipse cx="7.5" cy="266.5078" fill="none" rx="4" ry="4" style="stroke:#181818;stroke-width:1.5;"/><polygon fill="#181818" points="24.5,263.2578,14.5,267.2578,24.5,271.2578,20.5,267.2578" style="stroke:#181818;stroke-width:1.0;"/><line style="stroke:#181818;stroke-width:1.0;stroke-dasharray:2.0,2.0;" x1="22.5" x2="158" y1="267.2578" y2="267.2578"/></g></svg>