<?xml version="1.0" encoding="us-ascii" standalone="no"?><svg xmlns="http://www.w3.org/2000/svg" xmlns:xlink="http://www.w3.org/1999/xlink" contentStyleType="text/css" height="1248px" preserveAspectRatio="none" style="width:1187px;height:1248px;background:#FFFFFF;" version="1.1" viewBox="0 0 1187 1248" width="1187px" zoomAndPan="magnify"><defs/><g><text fill="#000000" font-family="sans-serif" font-size="14" font-weight="bold" lengthAdjust="spacing" textLength="212" x="488.75" y="27.7969">UC 11: Perform Player Turn</text><rect fill="#FFFFFF" height="1008.9297" style="stroke:#181818;stroke-width:1.0;" width="10" x="158.5" y="149.7266"/><rect fill="#FFFFFF" height="57.1328" style="stroke:#181818;stroke-width:1.0;" width="10" x="460.5" y="178.8594"/><rect fill="#FFFFFF" height="100.2656" style="stroke:#181818;stroke-width:1.0;" width="10" x="460.5" y="265.125"/><rect fill="#FFFFFF" height="319.8672" style="stroke:#181818;stroke-width:1.0;" width="10" x="460.5" y="452.7891"/><rect fill="#FFFFFF" height="100.2656" style="stroke:#181818;stroke-width:1.0;" width="10" x="460.5" y="801.7891"/><rect fill="#FFFFFF" height="57.1328" style="stroke:#181818;stroke-width:1.0;" width="10" x="460.5" y="984.4531"/><rect fill="#FFFFFF" height="57.1328" style="stroke:#181818;stroke-width:1.0;" width="10" x="460.5" y="1085.5234"/><rect fill="#FFFFFF" height="276.7344" style="stroke:#181818;stroke-width:1.0;" width="10" x="762.5" y="481.9219"/><rect fill="#FFFFFF" height="57.1328" style="stroke:#181818;stroke-width:1.0;" width="10" x="859" y="294.2578"/><rect fill="#FFFFFF" height="57.1328" style="stroke:#181818;stroke-width:1.0;" width="10" x="859" y="830.9219"/><rect fill="#FFFFFF" height="14" style="stroke:#181818;stroke-width:1.0;" width="10" x="1117.5" y="207.9922"/><rect fill="#FFFFFF" height="14" style="stroke:#181818;stroke-width:1.0;" width="10" x="1117.5" y="323.3906"/><rect fill="#FFFFFF" height="233.6016" style="stroke:#181818;stroke-width:1.0;" width="10" x="1117.5" y="511.0547"/><rect fill="#FFFFFF" height="14" style="stroke:#181818;stroke-width:1.0;" width="10" x="1117.5" y="860.0547"/><rect fill="#FFFFFF" height="14" style="stroke:#181818;stroke-width:1.0;" width="10" x="1117.5" y="1013.5859"/><rect fill="#FFFFFF" height="14" style="stroke:#181818;stroke-width:1.0;" width="10" x="1117.5" y="1114.6563"/><rect fill="none" height="205.6016" style="stroke:#000000;stroke-width:1.5;" width="1170.5" x="10" y="526.0547"/><rect fill="none" height="204.4688" style="stroke:#000000;stroke-width:1.5;" width="1058" x="122.5" y="946.1875"/><line style="stroke:#181818;stroke-width:0.5;stroke-dasharray:5.0,5.0;" x1="43" x2="43" y1="118.5938" y2="1167.6563"/><line style="stroke:#181818;stroke-width:0.5;stroke-dasharray:5.0,5.0;" x1="163.5" x2="163.5" y1="118.5938" y2="1167.6563"/><line style="stroke:#181818;stroke-width:0.5;stroke-dasharray:5.0,5.0;" x1="465" x2="465" y1="118.5938" y2="1167.6563"/><line style="stroke:#181818;stroke-width:0.5;stroke-dasharray:5.0,5.0;" x1="767" x2="767" y1="118.5938" y2="1167.6563"/><line style="stroke:#181818;stroke-width:0.5;stroke-dasharray:5.0,5.0;" x1="864" x2="864" y1="118.5938" y2="1167.6563"/><line style="stroke:#181818;stroke-width:0.5;stroke-dasharray:5.0,5.0;" x1="1122.5" x2="1122.5" y1="118.5938" y2="1167.6563"/><text fill="#000000" font-family="sans-serif" font-size="14" lengthAdjust="spacing" textLength="41" x="20" y="115.0938">Player</text><ellipse cx="43.5" cy="50.7969" fill="#E2E2F0" rx="8" ry="8" style="stroke:#181818;stroke-width:0.5;"/><path d="M43.5,58.7969 L43.5,85.7969 M30.5,66.7969 L56.5,66.7969 M43.5,85.7969 L30.5,100.7969 M43.5,85.7969 L56.5,100.7969 " fill="none" style="stroke:#181818;stroke-width:0.5;"/><text fill="#000000" font-family="sans-serif" font-size="14" lengthAdjust="spacing" textLength="41" x="20" y="1179.4531">Player</text><ellipse cx="43.5" cy="1191.4531" fill="#E2E2F0" rx="8" ry="8" style="stroke:#181818;stroke-width:0.5;"/><path d="M43.5,1199.4531 L43.5,1226.4531 M30.5,1207.4531 L56.5,1207.4531 M43.5,1226.4531 L30.5,1241.4531 M43.5,1226.4531 L56.5,1241.4531 " fill="none" style="stroke:#181818;stroke-width:0.5;"/><rect fill="#E2E2F0" height="30.2969" rx="2.5" ry="2.5" style="stroke:#181818;stroke-width:0.5;" width="62" x="132.5" y="87.2969"/><text fill="#000000" font-family="sans-serif" font-size="14" lengthAdjust="spacing" textLength="48" x="139.5" y="107.0938">:TextUI</text><rect fill="#E2E2F0" height="30.2969" rx="2.5" ry="2.5" style="stroke:#181818;stroke-width:0.5;" width="62" x="132.5" y="1166.6563"/><text fill="#000000" font-family="sans-serif" font-size="14" lengthAdjust="spacing" textLength="48" x="139.5" y="1186.4531">:TextUI</text><rect fill="#E2E2F0" height="30.2969" rx="2.5" ry="2.5" style="stroke:#181818;stroke-width:0.5;" width="211" x="360" y="87.2969"/><text fill="#000000" font-family="sans-serif" font-size="14" lengthAdjust="spacing" textLength="197" x="367" y="107.0938">:UserInteractionOrchestrator</text><rect fill="#E2E2F0" height="30.2969" rx="2.5" ry="2.5" style="stroke:#181818;stroke-width:0.5;" width="211" x="360" y="1166.6563"/><text fill="#000000" font-family="sans-serif" font-size="14" lengthAdjust="spacing" textLength="197" x="367" y="1186.4531">:UserInteractionOrchestrator</text><rect fill="#E2E2F0" height="30.2969" rx="2.5" ry="2.5" style="stroke:#181818;stroke-width:0.5;" width="51" x="742" y="87.2969"/><text fill="#000000" font-family="sans-serif" font-size="14" lengthAdjust="spacing" textLength="37" x="749" y="107.0938">:Turn</text><rect fill="#E2E2F0" height="30.2969" rx="2.5" ry="2.5" style="stroke:#181818;stroke-width:0.5;" width="51" x="742" y="1166.6563"/><text fill="#000000" font-family="sans-serif" font-size="14" lengthAdjust="spacing" textLength="37" x="749" y="1186.4531">:Turn</text><rect fill="#E2E2F0" height="30.2969" rx="2.5" ry="2.5" style="stroke:#181818;stroke-width:0.5;" width="122" x="803" y="87.2969"/><text fill="#000000" font-family="sans-serif" font-size="14" lengthAdjust="spacing" textLength="108" x="810" y="107.0938">:BoardProjector</text><rect fill="#E2E2F0" height="30.2969" rx="2.5" ry="2.5" style="stroke:#181818;stroke-width:0.5;" width="122" x="803" y="1166.6563"/><text fill="#000000" font-family="sans-serif" font-size="14" lengthAdjust="spacing" textLength="108" x="810" y="1186.4531">:BoardProjector</text><rect fill="#E2E2F0" height="30.2969" rx="2.5" ry="2.5" style="stroke:#181818;stroke-width:0.5;" width="96" x="1074.5" y="87.2969"/><text fill="#000000" font-family="sans-serif" font-size="14" lengthAdjust="spacing" textLength="82" x="1081.5" y="107.0938">:GameLogic</text><rect fill="#E2E2F0" height="30.2969" rx="2.5" ry="2.5" style="stroke:#181818;stroke-width:0.5;" width="96" x="1074.5" y="1166.6563"/><text fill="#000000" font-family="sans-serif" font-size="14" lengthAdjust="spacing" textLength="82" x="1081.5" y="1186.4531">:GameLogic</text><rect fill="#FFFFFF" height="1008.9297" style="stroke:#181818;stroke-width:1.0;" width="10" x="158.5" y="149.7266"/><rect fill="#FFFFFF" height="57.1328" style="stroke:#181818;stroke-width:1.0;" width="10" x="460.5" y="178.8594"/><rect fill="#FFFFFF" height="100.2656" style="stroke:#181818;stroke-width:1.0;" width="10" x="460.5" y="265.125"/><rect fill="#FFFFFF" height="319.8672" style="stroke:#181818;stroke-width:1.0;" width="10" x="460.5" y="452.7891"/><rect fill="#FFFFFF" height="100.2656" style="stroke:#181818;stroke-width:1.0;" width="10" x="460.5" y="801.7891"/><rect fill="#FFFFFF" height="57.1328" style="stroke:#181818;stroke-width:1.0;" width="10" x="460.5" y="984.4531"/><rect fill="#FFFFFF" height="57.1328" style="stroke:#181818;stroke-width:1.0;" width="10" x="460.5" y="1085.5234"/><rect fill="#FFFFFF" height="276.7344" style="stroke:#181818;stroke-width:1.0;" width="10" x="762.5" y="481.9219"/><rect fill="#FFFFFF" height="57.1328" style="stroke:#181818;stroke-width:1.0;" width="10" x="859" y="294.2578"/><rect fill="#FFFFFF" height="57.1328" style="stroke:#181818;stroke-width:1.0;" width="10" x="859" y="830.9219"/><rect fill="#FFFFFF" height="14" style="stroke:#181818;stroke-width:1.0;" width="10" x="1117.5" y="207.9922"/><rect fill="#FFFFFF" height="14" style="stroke:#181818;stroke-width:1.0;" width="10" x="1117.5" y="323.3906"/><rect fill="#FFFFFF" height="233.6016" style="stroke:#181818;stroke-width:1.0;" width="10" x="1117.5" y="511.0547"/><rect fill="#FFFFFF" height="14" style="stroke:#181818;stroke-width:1.0;" width="10" x="1117.5" y="860.0547"/><rect fill="#FFFFFF" height="14" style="stroke:#181818;stroke-width:1.0;" width="10" x="1117.5" y="1013.5859"/><rect fill="#FFFFFF" height="14" style="stroke:#181818;stroke-width:1.0;" width="10" x="1117.5" y="1114.6563"/><ellipse cx="7.5" cy="148.9766" fill="none" rx="4" ry="4" style="stroke:#181818;stroke-width:1.5;"/><polygon fill="#181818" points="146.5,145.7266,156.5,149.7266,146.5,153.7266,150.5,149.7266" style="stroke:#181818;stroke-width:1.0;"/><line style="stroke:#181818;stroke-width:1.0;" x1="12" x2="152.5" y1="149.7266" y2="149.7266"/><text fill="#000000" font-family="sans-serif" font-size="13" lengthAdjust="spacing" textLength="101" x="15" y="144.4766">perform_turns()</text><polygon fill="#181818" points="448.5,174.8594,458.5,178.8594,448.5,182.8594,452.5,178.8594" style="stroke:#181818;stroke-width:1.0;"/><line style="stroke:#181818;stroke-width:1.0;" x1="168.5" x2="454.5" y1="178.8594" y2="178.8594"/><text fill="#000000" font-family="sans-serif" font-size="13" lengthAdjust="spacing" textLength="89" x="175.5" y="173.6094">current_turn()</text><polygon fill="#181818" points="1105.5,203.9922,1115.5,207.9922,1105.5,211.9922,1109.5,207.9922" style="stroke:#181818;stroke-width:1.0;"/><line style="stroke:#181818;stroke-width:1.0;" x1="470.5" x2="1111.5" y1="207.9922" y2="207.9922"/><text fill="#000000" font-family="sans-serif" font-size="13" lengthAdjust="spacing" textLength="89" x="477.5" y="202.7422">current_turn()</text><polygon fill="#181818" points="481.5,217.9922,471.5,221.9922,481.5,225.9922,477.5,221.9922" style="stroke:#181818;stroke-width:1.0;"/><line style="stroke:#181818;stroke-width:1.0;stroke-dasharray:2.0,2.0;" x1="475.5" x2="1121.5" y1="221.9922" y2="221.9922"/><polygon fill="#181818" points="179.5,231.9922,169.5,235.9922,179.5,239.9922,175.5,235.9922" style="stroke:#181818;stroke-width:1.0;"/><line style="stroke:#181818;stroke-width:1.0;stroke-dasharray:2.0,2.0;" x1="173.5" x2="464.5" y1="235.9922" y2="235.9922"/><polygon fill="#181818" points="448.5,261.125,458.5,265.125,448.5,269.125,452.5,265.125" style="stroke:#181818;stroke-width:1.0;"/><line style="stroke:#181818;stroke-width:1.0;" x1="168.5" x2="454.5" y1="265.125" y2="265.125"/><text fill="#000000" font-family="sans-serif" font-size="13" lengthAdjust="spacing" textLength="86" x="175.5" y="259.875">show_board()</text><polygon fill="#181818" points="847,290.2578,857,294.2578,847,298.2578,851,294.2578" style="stroke:#181818;stroke-width:1.0;"/><line style="stroke:#181818;stroke-width:1.0;" x1="470.5" x2="853" y1="294.2578" y2="294.2578"/><text fill="#000000" font-family="sans-serif" font-size="13" lengthAdjust="spacing" textLength="249" x="477.5" y="289.0078">show(HashSet&lt;UUID, Player&gt; players)</text><polygon fill="#181818" points="1105.5,319.3906,1115.5,323.3906,1105.5,327.3906,1109.5,323.3906" style="stroke:#181818;stroke-width:1.0;"/><line style="stroke:#181818;stroke-width:1.0;" x1="869" x2="1111.5" y1="323.3906" y2="323.3906"/><text fill="#000000" font-family="sans-serif" font-size="13" lengthAdjust="spacing" textLength="47" x="876" y="318.1406">board()</text><polygon fill="#181818" points="880,333.3906,870,337.3906,880,341.3906,876,337.3906" style="stroke:#181818;stroke-width:1.0;"/><line style="stroke:#181818;stroke-width:1.0;stroke-dasharray:2.0,2.0;" x1="874" x2="1121.5" y1="337.3906" y2="337.3906"/><polygon fill="#181818" points="481.5,347.3906,471.5,351.3906,481.5,355.3906,477.5,351.3906" style="stroke:#181818;stroke-width:1.0;"/><line style="stroke:#181818;stroke-width:1.0;stroke-dasharray:2.0,2.0;" x1="475.5" x2="863" y1="351.3906" y2="351.3906"/><polygon fill="#181818" points="179.5,361.3906,169.5,365.3906,179.5,369.3906,175.5,365.3906" style="stroke:#181818;stroke-width:1.0;"/><line style="stroke:#181818;stroke-width:1.0;stroke-dasharray:2.0,2.0;" x1="173.5" x2="464.5" y1="365.3906" y2="365.3906"/><polygon fill="#181818" points="54.5,390.5234,44.5,394.5234,54.5,398.5234,50.5,394.5234" style="stroke:#181818;stroke-width:1.0;"/><line style="stroke:#181818;stroke-width:1.0;" x1="48.5" x2="157.5" y1="394.5234" y2="394.5234"/><text fill="#000000" font-family="sans-serif" font-size="13" lengthAdjust="spacing" textLength="63" x="60.5" y="389.2734">"Source: "</text><polygon fill="#181818" points="54.5,419.6563,44.5,423.6563,54.5,427.6563,50.5,423.6563" style="stroke:#181818;stroke-width:1.0;"/><line style="stroke:#181818;stroke-width:1.0;" x1="48.5" x2="157.5" y1="423.6563" y2="423.6563"/><text fill="#000000" font-family="sans-serif" font-size="13" lengthAdjust="spacing" textLength="91" x="60.5" y="418.4063">"Destination: "</text><polygon fill="#181818" points="448.5,448.7891,458.5,452.7891,448.5,456.7891,452.5,452.7891" style="stroke:#181818;stroke-width:1.0;"/><line style="stroke:#181818;stroke-width:1.0;" x1="168.5" x2="454.5" y1="452.7891" y2="452.7891"/><text fill="#000000" font-family="sans-serif" font-size="13" lengthAdjust="spacing" textLength="273" x="175.5" y="447.5391">perform_turn(source_coords, dest_coords)</text><polygon fill="#181818" points="750.5,477.9219,760.5,481.9219,750.5,485.9219,754.5,481.9219" style="stroke:#181818;stroke-width:1.0;"/><line style="stroke:#181818;stroke-width:1.0;" x1="470.5" x2="756.5" y1="481.9219" y2="481.9219"/><text fill="#000000" font-family="sans-serif" font-size="13" lengthAdjust="spacing" textLength="273" x="477.5" y="476.6719">perform_turn(source_coords, dest_coords)</text><polygon fill="#181818" points="1105.5,507.0547,1115.5,511.0547,1105.5,515.0547,1109.5,511.0547" style="stroke:#181818;stroke-width:1.0;"/><line style="stroke:#181818;stroke-width:1.0;" x1="772.5" x2="1111.5" y1="511.0547" y2="511.0547"/><text fill="#000000" font-family="sans-serif" font-size="13" lengthAdjust="spacing" textLength="326" x="779.5" y="505.8047">perform_move(source_coords, destination_coords)</text><path d="M10,526.0547 L74,526.0547 L74,533.1875 L64,543.1875 L10,543.1875 L10,526.0547 " fill="#EEEEEE" style="stroke:#000000;stroke-width:1.5;"/><rect fill="none" height="205.6016" style="stroke:#000000;stroke-width:1.5;" width="1170.5" x="10" y="526.0547"/><text fill="#000000" font-family="sans-serif" font-size="13" font-weight="bold" lengthAdjust="spacing" textLength="19" x="25" y="538.9375">alt</text><text fill="#000000" font-family="sans-serif" font-size="11" font-weight="bold" lengthAdjust="spacing" textLength="115" x="89" y="538.1094">[invalid coordinates]</text><polygon fill="#181818" points="783.5,560.3203,773.5,564.3203,783.5,568.3203,779.5,564.3203" style="stroke:#181818;stroke-width:1.0;"/><line style="stroke:#181818;stroke-width:1.0;stroke-dasharray:2.0,2.0;" x1="777.5" x2="1116.5" y1="564.3203" y2="564.3203"/><text fill="#000000" font-family="sans-serif" font-size="13" lengthAdjust="spacing" textLength="148" x="789.5" y="559.0703">"Invalid Turn Exception"</text><polygon fill="#181818" points="179.5,589.4531,169.5,593.4531,179.5,597.4531,175.5,593.4531" style="stroke:#181818;stroke-width:1.0;"/><line style="stroke:#181818;stroke-width:1.0;stroke-dasharray:2.0,2.0;" x1="173.5" x2="761.5" y1="593.4531" y2="593.4531"/><text fill="#000000" font-family="sans-serif" font-size="13" lengthAdjust="spacing" textLength="148" x="185.5" y="588.2031">"Invalid Turn Exception"</text><polygon fill="#181818" points="54.5,618.5859,44.5,622.5859,54.5,626.5859,50.5,622.5859" style="stroke:#181818;stroke-width:1.0;"/><line style="stroke:#181818;stroke-width:1.0;stroke-dasharray:2.0,2.0;" x1="48.5" x2="157.5" y1="622.5859" y2="622.5859"/><text fill="#000000" font-family="sans-serif" font-size="13" lengthAdjust="spacing" textLength="82" x="60.5" y="617.3359">"Invalid Turn"</text><ellipse cx="7.5" cy="635.8359" fill="none" rx="4" ry="4" style="stroke:#181818;stroke-width:1.5;"/><polygon fill="#181818" points="24.5,632.5859,14.5,636.5859,24.5,640.5859,20.5,636.5859" style="stroke:#181818;stroke-width:1.0;"/><line style="stroke:#181818;stroke-width:1.0;stroke-dasharray:2.0,2.0;" x1="22.5" x2="157.5" y1="636.5859" y2="636.5859"/><line style="stroke:#000000;stroke-width:1.0;stroke-dasharray:2.0,2.0;" x1="10" x2="1180.5" y1="645.5859" y2="645.5859"/><text fill="#000000" font-family="sans-serif" font-size="11" font-weight="bold" lengthAdjust="spacing" textLength="138" x="15" y="655.6406">[game ends after move]</text><polygon fill="#181818" points="783.5,676.5234,773.5,680.5234,783.5,684.5234,779.5,680.5234" style="stroke:#181818;stroke-width:1.0;"/><line style="stroke:#181818;stroke-width:1.0;stroke-dasharray:2.0,2.0;" x1="777.5" x2="1116.5" y1="680.5234" y2="680.5234"/><text fill="#000000" font-family="sans-serif" font-size="13" lengthAdjust="spacing" textLength="143" x="789.5" y="675.2734">"Game End Exception"</text><polygon fill="#181818" points="179.5,705.6563,169.5,709.6563,179.5,713.6563,175.5,709.6563" style="stroke:#181818;stroke-width:1.0;"/><line style="stroke:#181818;stroke-width:1.0;stroke-dasharray:2.0,2.0;" x1="173.5" x2="761.5" y1="709.6563" y2="709.6563"/><text fill="#000000" font-family="sans-serif" font-size="13" lengthAdjust="spacing" textLength="143" x="185.5" y="704.4063">"Game End Exception"</text><ellipse cx="7.5" cy="722.9063" fill="none" rx="4" ry="4" style="stroke:#181818;stroke-width:1.5;"/><polygon fill="#181818" points="24.5,719.6563,14.5,723.6563,24.5,727.6563,20.5,723.6563" style="stroke:#181818;stroke-width:1.0;"/><line style="stroke:#181818;stroke-width:1.0;stroke-dasharray:2.0,2.0;" x1="22.5" x2="157.5" y1="723.6563" y2="723.6563"/><polygon fill="#181818" points="783.5,740.6563,773.5,744.6563,783.5,748.6563,779.5,744.6563" style="stroke:#181818;stroke-width:1.0;"/><line style="stroke:#181818;stroke-width:1.0;stroke-dasharray:2.0,2.0;" x1="777.5" x2="1121.5" y1="744.6563" y2="744.6563"/><polygon fill="#181818" points="481.5,754.6563,471.5,758.6563,481.5,762.6563,477.5,758.6563" style="stroke:#181818;stroke-width:1.0;"/><line style="stroke:#181818;stroke-width:1.0;stroke-dasharray:2.0,2.0;" x1="475.5" x2="766.5" y1="758.6563" y2="758.6563"/><polygon fill="#181818" points="179.5,768.6563,169.5,772.6563,179.5,776.6563,175.5,772.6563" style="stroke:#181818;stroke-width:1.0;"/><line style="stroke:#181818;stroke-width:1.0;stroke-dasharray:2.0,2.0;" x1="173.5" x2="464.5" y1="772.6563" y2="772.6563"/><polygon fill="#181818" points="448.5,797.7891,458.5,801.7891,448.5,805.7891,452.5,801.7891" style="stroke:#181818;stroke-width:1.0;"/><line style="stroke:#181818;stroke-width:1.0;" x1="168.5" x2="454.5" y1="801.7891" y2="801.7891"/><text fill="#000000" font-family="sans-serif" font-size="13" lengthAdjust="spacing" textLength="86" x="175.5" y="796.5391">show_board()</text><polygon fill="#181818" points="847,826.9219,857,830.9219,847,834.9219,851,830.9219" style="stroke:#181818;stroke-width:1.0;"/><line style="stroke:#181818;stroke-width:1.0;" x1="470.5" x2="853" y1="830.9219" y2="830.9219"/><text fill="#000000" font-family="sans-serif" font-size="13" lengthAdjust="spacing" textLength="249" x="477.5" y="825.6719">show(HashSet&lt;UUID, Player&gt; players)</text><polygon fill="#181818" points="1105.5,856.0547,1115.5,860.0547,1105.5,864.0547,1109.5,860.0547" style="stroke:#181818;stroke-width:1.0;"/><line style="stroke:#181818;stroke-width:1.0;" x1="869" x2="1111.5" y1="860.0547" y2="860.0547"/><text fill="#000000" font-family="sans-serif" font-size="13" lengthAdjust="spacing" textLength="47" x="876" y="854.8047">board()</text><polygon fill="#181818" points="880,870.0547,870,874.0547,880,878.0547,876,874.0547" style="stroke:#181818;stroke-width:1.0;"/><line style="stroke:#181818;stroke-width:1.0;stroke-dasharray:2.0,2.0;" x1="874" x2="1121.5" y1="874.0547" y2="874.0547"/><polygon fill="#181818" points="481.5,884.0547,471.5,888.0547,481.5,892.0547,477.5,888.0547" style="stroke:#181818;stroke-width:1.0;"/><line style="stroke:#181818;stroke-width:1.0;stroke-dasharray:2.0,2.0;" x1="475.5" x2="863" y1="888.0547" y2="888.0547"/><polygon fill="#181818" points="179.5,898.0547,169.5,902.0547,179.5,906.0547,175.5,902.0547" style="stroke:#181818;stroke-width:1.0;"/><line style="stroke:#181818;stroke-width:1.0;stroke-dasharray:2.0,2.0;" x1="173.5" x2="464.5" y1="902.0547" y2="902.0547"/><polygon fill="#181818" points="54.5,927.1875,44.5,931.1875,54.5,935.1875,50.5,931.1875" style="stroke:#181818;stroke-width:1.0;"/><line style="stroke:#181818;stroke-width:1.0;" x1="48.5" x2="157.5" y1="931.1875" y2="931.1875"/><text fill="#000000" font-family="sans-serif" font-size="13" lengthAdjust="spacing" textLength="71" x="60.5" y="925.9375">"Confirm? "</text><path d="M122.5,946.1875 L186.5,946.1875 L186.5,953.3203 L176.5,963.3203 L122.5,963.3203 L122.5,946.1875 " fill="#EEEEEE" style="stroke:#000000;stroke-width:1.5;"/><rect fill="none" height="204.4688" style="stroke:#000000;stroke-width:1.5;" width="1058" x="122.5" y="946.1875"/><text fill="#000000" font-family="sans-serif" font-size="13" font-weight="bold" lengthAdjust="spacing" textLength="19" x="137.5" y="959.0703">alt</text><text fill="#000000" font-family="sans-serif" font-size="11" font-weight="bold" lengthAdjust="spacing" textLength="97" x="201.5" y="958.2422">[player confirms]</text><polygon fill="#181818" points="448.5,980.4531,458.5,984.4531,448.5,988.4531,452.5,984.4531" style="stroke:#181818;stroke-width:1.0;"/><line style="stroke:#181818;stroke-width:1.0;" x1="168.5" x2="454.5" y1="984.4531" y2="984.4531"/><text fill="#000000" font-family="sans-serif" font-size="13" lengthAdjust="spacing" textLength="101" x="175.5" y="979.2031">confirm_move()</text><polygon fill="#181818" points="1105.5,1009.5859,1115.5,1013.5859,1105.5,1017.5859,1109.5,1013.5859" style="stroke:#181818;stroke-width:1.0;"/><line style="stroke:#181818;stroke-width:1.0;" x1="470.5" x2="1111.5" y1="1013.5859" y2="1013.5859"/><text fill="#000000" font-family="sans-serif" font-size="13" lengthAdjust="spacing" textLength="101" x="477.5" y="1008.3359">confirm_move()</text><polygon fill="#181818" points="481.5,1023.5859,471.5,1027.5859,481.5,1031.5859,477.5,1027.5859" style="stroke:#181818;stroke-width:1.0;"/><line style="stroke:#181818;stroke-width:1.0;stroke-dasharray:2.0,2.0;" x1="475.5" x2="1121.5" y1="1027.5859" y2="1027.5859"/><polygon fill="#181818" points="179.5,1037.5859,169.5,1041.5859,179.5,1045.5859,175.5,1041.5859" style="stroke:#181818;stroke-width:1.0;"/><line style="stroke:#181818;stroke-width:1.0;stroke-dasharray:2.0,2.0;" x1="173.5" x2="464.5" y1="1041.5859" y2="1041.5859"/><line style="stroke:#000000;stroke-width:1.0;stroke-dasharray:2.0,2.0;" x1="122.5" x2="1180.5" y1="1050.5859" y2="1050.5859"/><text fill="#000000" font-family="sans-serif" font-size="11" font-weight="bold" lengthAdjust="spacing" textLength="128" x="127.5" y="1060.6406">[player wants to undo]</text><polygon fill="#181818" points="448.5,1081.5234,458.5,1085.5234,448.5,1089.5234,452.5,1085.5234" style="stroke:#181818;stroke-width:1.0;"/><line style="stroke:#181818;stroke-width:1.0;" x1="168.5" x2="454.5" y1="1085.5234" y2="1085.5234"/><text fill="#000000" font-family="sans-serif" font-size="13" lengthAdjust="spacing" textLength="85" x="175.5" y="1080.2734">undo_move()</text><polygon fill="#181818" points="1105.5,1110.6563,1115.5,1114.6563,1105.5,1118.6563,1109.5,1114.6563" style="stroke:#181818;stroke-width:1.0;"/><line style="stroke:#181818;stroke-width:1.0;" x1="470.5" x2="1111.5" y1="1114.6563" y2="1114.6563"/><text fill="#000000" font-family="sans-serif" font-size="13" lengthAdjust="spacing" textLength="85" x="477.5" y="1109.4063">undo_move()</text><polygon fill="#181818" points="481.5,1124.6563,471.5,1128.6563,481.5,1132.6563,477.5,1128.6563" style="stroke:#181818;stroke-width:1.0;"/><line style="stroke:#181818;stroke-width:1.0;stroke-dasharray:2.0,2.0;" x1="475.5" x2="1121.5" y1="1128.6563" y2="1128.6563"/><polygon fill="#181818" points="179.5,1138.6563,169.5,1142.6563,179.5,1146.6563,175.5,1142.6563" style="stroke:#181818;stroke-width:1.0;"/><line style="stroke:#181818;stroke-width:1.0;stroke-dasharray:2.0,2.0;" x1="173.5" x2="464.5" y1="1142.6563" y2="1142.6563"/></g></svg>