<?xml version="1.0" encoding="us-ascii" standalone="no"?><svg xmlns="http://www.w3.org/2000/svg" xmlns:xlink="http://www.w3.org/1999/xlink" contentStyleType="text/css" height="401px" preserveAspectRatio="none" style="width:1079px;height:401px;background:#FFFFFF;" version="1.1" viewBox="0 0 1079 401" width="1079px" zoomAndPan="magnify"><defs/><g><text fill="#000000" font-family="sans-serif" font-size="14" font-weight="bold" lengthAdjust="spacing" textLength="151" x="463" y="27.7969">UC2: Validate Move</text><rect fill="#FFFFFF" height="243.5391" style="stroke:#181818;stroke-width:1.0;" width="10" x="428" y="104.7266"/><rect fill="#FFFFFF" height="121.5313" style="stroke:#181818;stroke-width:1.0;" width="10" x="433" y="141.8594"/><rect fill="#FFFFFF" height="29.1328" style="stroke:#181818;stroke-width:1.0;" width="10" x="765" y="175.9922"/><rect fill="#FFFFFF" height="29.1328" style="stroke:#181818;stroke-width:1.0;" width="10" x="765" y="234.2578"/><rect fill="none" height="56.875" style="stroke:#000000;stroke-width:1.5;" width="485" x="11" y="278.3906"/><line style="stroke:#181818;stroke-width:0.5;stroke-dasharray:5.0,5.0;" x1="433" x2="433" y1="73.5938" y2="366.2656"/><line style="stroke:#181818;stroke-width:0.5;stroke-dasharray:5.0,5.0;" x1="770" x2="770" y1="73.5938" y2="366.2656"/><line style="stroke:#181818;stroke-width:0.5;stroke-dasharray:5.0,5.0;" x1="1025" x2="1025" y1="73.5938" y2="366.2656"/><rect fill="#E2E2F0" height="30.2969" rx="2.5" ry="2.5" style="stroke:#181818;stroke-width:0.5;" width="106" x="380" y="42.2969"/><text fill="#000000" font-family="sans-serif" font-size="14" lengthAdjust="spacing" textLength="92" x="387" y="62.0938">:MoveService</text><rect fill="#E2E2F0" height="30.2969" rx="2.5" ry="2.5" style="stroke:#181818;stroke-width:0.5;" width="106" x="380" y="365.2656"/><text fill="#000000" font-family="sans-serif" font-size="14" lengthAdjust="spacing" textLength="92" x="387" y="385.0625">:MoveService</text><rect fill="#E2E2F0" height="30.2969" rx="2.5" ry="2.5" style="stroke:#181818;stroke-width:0.5;" width="60" x="740" y="42.2969"/><text fill="#000000" font-family="sans-serif" font-size="14" lengthAdjust="spacing" textLength="46" x="747" y="62.0938">:Board</text><rect fill="#E2E2F0" height="30.2969" rx="2.5" ry="2.5" style="stroke:#181818;stroke-width:0.5;" width="60" x="740" y="365.2656"/><text fill="#000000" font-family="sans-serif" font-size="14" lengthAdjust="spacing" textLength="46" x="747" y="385.0625">:Board</text><rect fill="#E2E2F0" height="30.2969" rx="2.5" ry="2.5" style="stroke:#181818;stroke-width:0.5;" width="96" x="977" y="42.2969"/><text fill="#000000" font-family="sans-serif" font-size="14" lengthAdjust="spacing" textLength="82" x="984" y="62.0938">:BoardState</text><rect fill="#E2E2F0" height="30.2969" rx="2.5" ry="2.5" style="stroke:#181818;stroke-width:0.5;" width="96" x="977" y="365.2656"/><text fill="#000000" font-family="sans-serif" font-size="14" lengthAdjust="spacing" textLength="82" x="984" y="385.0625">:BoardState</text><rect fill="#FFFFFF" height="243.5391" style="stroke:#181818;stroke-width:1.0;" width="10" x="428" y="104.7266"/><rect fill="#FFFFFF" height="121.5313" style="stroke:#181818;stroke-width:1.0;" width="10" x="433" y="141.8594"/><rect fill="#FFFFFF" height="29.1328" style="stroke:#181818;stroke-width:1.0;" width="10" x="765" y="175.9922"/><rect fill="#FFFFFF" height="29.1328" style="stroke:#181818;stroke-width:1.0;" width="10" x="765" y="234.2578"/><ellipse cx="7.5" cy="103.9766" fill="none" rx="4" ry="4" style="stroke:#181818;stroke-width:1.5;"/><polygon fill="#181818" points="416,100.7266,426,104.7266,416,108.7266,420,104.7266" style="stroke:#181818;stroke-width:1.0;"/><line style="stroke:#181818;stroke-width:1.0;" x1="12" x2="422" y1="104.7266" y2="104.7266"/><text fill="#000000" font-family="sans-serif" font-size="13" lengthAdjust="spacing" textLength="401" x="15" y="99.4766">validate_move(board, {x1,y1}, {x2,y2}, current_turn_callback)</text><line style="stroke:#181818;stroke-width:1.0;" x1="438" x2="485" y1="128.8594" y2="128.8594"/><line style="stroke:#181818;stroke-width:1.0;" x1="485" x2="485" y1="128.8594" y2="141.8594"/><line style="stroke:#181818;stroke-width:1.0;" x1="444" x2="485" y1="141.8594" y2="141.8594"/><polygon fill="#181818" points="454,137.8594,444,141.8594,454,145.8594,450,141.8594" style="stroke:#181818;stroke-width:1.0;"/><text fill="#000000" font-family="sans-serif" font-size="13" lengthAdjust="spacing" textLength="313" x="450" y="123.6094">get_legal_moves(current_turn_callback, {x1,y1})</text><polygon fill="#181818" points="753,171.9922,763,175.9922,753,179.9922,757,175.9922" style="stroke:#181818;stroke-width:1.0;"/><line style="stroke:#181818;stroke-width:1.0;" x1="443" x2="759" y1="175.9922" y2="175.9922"/><text fill="#000000" font-family="sans-serif" font-size="13" lengthAdjust="spacing" textLength="192" x="450" y="170.7422">get_stacks(legal_stacks_filter)</text><polygon fill="#181818" points="1013,201.125,1023,205.125,1013,209.125,1017,205.125" style="stroke:#181818;stroke-width:1.0;"/><line style="stroke:#181818;stroke-width:1.0;" x1="770" x2="1019" y1="205.125" y2="205.125"/><text fill="#000000" font-family="sans-serif" font-size="13" lengthAdjust="spacing" textLength="192" x="777" y="199.875">get_stacks(legal_stacks_filter)</text><polygon fill="#181818" points="753,230.2578,763,234.2578,753,238.2578,757,234.2578" style="stroke:#181818;stroke-width:1.0;"/><line style="stroke:#181818;stroke-width:1.0;" x1="443" x2="759" y1="234.2578" y2="234.2578"/><text fill="#000000" font-family="sans-serif" font-size="13" lengthAdjust="spacing" textLength="226" x="450" y="229.0078">get_stacks(legal_placements_filter)</text><polygon fill="#181818" points="1013,259.3906,1023,263.3906,1013,267.3906,1017,263.3906" style="stroke:#181818;stroke-width:1.0;"/><line style="stroke:#181818;stroke-width:1.0;" x1="770" x2="1019" y1="263.3906" y2="263.3906"/><text fill="#000000" font-family="sans-serif" font-size="13" lengthAdjust="spacing" textLength="226" x="777" y="258.1406">get_stacks(legal_placements_filter)</text><path d="M11,278.3906 L75,278.3906 L75,285.5234 L65,295.5234 L11,295.5234 L11,278.3906 " fill="#EEEEEE" style="stroke:#000000;stroke-width:1.5;"/><rect fill="none" height="56.875" style="stroke:#000000;stroke-width:1.5;" width="485" x="11" y="278.3906"/><text fill="#000000" font-family="sans-serif" font-size="13" font-weight="bold" lengthAdjust="spacing" textLength="19" x="26" y="291.2734">alt</text><text fill="#000000" font-family="sans-serif" font-size="11" font-weight="bold" lengthAdjust="spacing" textLength="212" x="90" y="290.4453">["Selected stack isn't a legal stack or</text><text fill="#000000" font-family="sans-serif" font-size="11" font-weight="bold" lengthAdjust="spacing" textLength="250" x="90" y="303.25">selected placement isnt a legal placement"]</text><ellipse cx="7.5" cy="326.5156" fill="none" rx="4" ry="4" style="stroke:#181818;stroke-width:1.5;"/><polygon fill="#181818" points="24.5,323.2656,14.5,327.2656,24.5,331.2656,20.5,327.2656" style="stroke:#181818;stroke-width:1.0;"/><line style="stroke:#181818;stroke-width:1.0;stroke-dasharray:2.0,2.0;" x1="22.5" x2="427" y1="327.2656" y2="327.2656"/><text fill="#000000" font-family="sans-serif" font-size="13" lengthAdjust="spacing" textLength="132" x="25" y="322.0156">IllegalMoveException</text><ellipse cx="7.5" cy="347.5156" fill="none" rx="4" ry="4" style="stroke:#181818;stroke-width:1.5;"/><polygon fill="#181818" points="24.5,344.2656,14.5,348.2656,24.5,352.2656,20.5,348.2656" style="stroke:#181818;stroke-width:1.0;"/><line style="stroke:#181818;stroke-width:1.0;stroke-dasharray:2.0,2.0;" x1="22.5" x2="432" y1="348.2656" y2="348.2656"/></g></svg>